<svg xmlns="http://www.w3.org/2000/svg" viewBox="0 0 210.12 209.69">
  <g id="Layer_2" data-name="Layer 2">
    <g id="Layer_1-2" data-name="Layer 1">
      <path d="M203.28,48A29,29,0,0,0,201.4,8.55,29.43,29.43,0,0,0,162,6.68L121.34,36.8a11.33,11.33,0,0,1-8.89,2L43,25.36a29.87,29.87,0,0,0-34,20.12l-.46,1.41a9.27,9.27,0,0,0,4.19,10.87l57.64,33.3L38.51,130.91l-2.57-.76a29.66,29.66,0,0,0-28.36,6.5l-4.52,4.07a9.28,9.28,0,0,0-.68,13.09l.33.34L55.53,207a9.31,9.31,0,0,0,6.55,2.71h.24A9.26,9.26,0,0,0,69,206.63L73,202.11a29.66,29.66,0,0,0,6.49-28.36l-.75-2.57,39.85-31.8,33.59,58a9.26,9.26,0,0,0,10.86,4.18l1.41-.46A29.87,29.87,0,0,0,184.62,167L171.16,97.52a11.35,11.35,0,0,1,2-8.9Zm-37.1-21.35s12.85-14.32,22.17-5-4.07,20.91-4.07,20.91Z"/>
    </g>
  </g>
</svg>
