<svg xmlns="http://www.w3.org/2000/svg" width="38.308" height="32.773" viewBox="0 0 38.308 32.773"><defs><style>.a{fill:#f5f5f5;}</style></defs><g transform="translate(0 -29.734)"><path class="a" d="M20.374,56.82,8.38,33.245a5.421,5.421,0,0,0-4.713-2.769,3.94,3.94,0,0,0-1.847.41C.695,31.5.437,32.628,1.154,34.015L13.046,56.922a3.991,3.991,0,0,0,3.844,2.152A4,4,0,0,0,20.374,56.82Zm4.3,4.921a1.5,1.5,0,0,0,1.384-.821L37.029,35.858a3.987,3.987,0,0,0,.049-3.945,2.836,2.836,0,0,0-2.663-1.18c-1.741.154-3.433,1.538-4.457,3.742L21.193,56.765l2.1,4.2A1.665,1.665,0,0,0,24.677,61.741Zm-12.3-4.51L.489,34.32c-1.077-2.05-.207-3.433.973-4.1a6.01,6.01,0,0,1,7.586,2.663L20.732,55.9l8.557-21.677v-.053c1.18-2.456,3.025-3.994,5.075-4.149A3.61,3.61,0,0,1,37.7,31.449a4.816,4.816,0,0,1,0,4.717L26.727,61.278a2.238,2.238,0,0,1-2.05,1.229,2.348,2.348,0,0,1-2.05-1.176L20.78,57.588a4.83,4.83,0,0,1-3.844,2.253A4.762,4.762,0,0,1,12.378,57.231Z" transform="translate(0)"/><path class="a" d="M924.475,73.156c.687,1,.687,2.43-.05,4.065l-11.3,25.82a1.545,1.545,0,0,1-1.425.846,1.725,1.725,0,0,1-1.425-.8l-2.166-4.329L917.137,75.8c1.055-2.271,2.8-3.7,4.592-3.855A2.921,2.921,0,0,1,924.475,73.156Z" transform="translate(-887.165 -41.676)"/></g></svg>