<svg xmlns="http://www.w3.org/2000/svg" xmlns:xlink="http://www.w3.org/1999/xlink" viewBox="0 0 559 559"><defs><style>.a{fill:#141414;}.b{fill:#1f1f1f;}.c{filter:url(#c);}.d{filter:url(#a);}</style><filter id="a" x="3" y="3" width="556" height="556" filterUnits="userSpaceOnUse"><feOffset dx="24" dy="24" input="SourceAlpha"/><feGaussianBlur stdDeviation="30" result="b"/><feFlood flood-opacity="0.702"/><feComposite operator="in" in2="b"/><feComposite in="SourceGraphic"/></filter><filter id="c" x="0" y="0" width="503.846" height="503.846" filterUnits="userSpaceOnUse"><feOffset dx="24" dy="24" input="SourceAlpha"/><feGaussianBlur stdDeviation="30" result="d"/><feFlood flood-opacity="0.161"/><feComposite operator="in" in2="d"/><feComposite in="SourceGraphic"/></filter></defs><g transform="translate(-437 -3502)"><g class="d" transform="matrix(1, 0, 0, 1, 437, 3502)"><circle class="a" cx="188" cy="188" r="188" transform="translate(69 69)"/></g><g class="c" transform="matrix(1, 0, 0, 1, 437, 3502)"><path class="b" d="M58.038,323.846h0a188.417,188.417,0,0,1-42.431-60.729A187.035,187.035,0,0,1,4.039,226.946a189.8,189.8,0,0,1-.22-76.834A186.97,186.97,0,0,1,32.107,82.888a188.55,188.55,0,0,1,82.715-68.114,187.05,187.05,0,0,1,35.29-10.955,189.8,189.8,0,0,1,76.834.22,187.043,187.043,0,0,1,68.746,29.843,189.407,189.407,0,0,1,28.154,24.156L58.039,323.846Z" transform="translate(66 66)"/></g></g></svg>