<svg xmlns="http://www.w3.org/2000/svg" width="275.527" height="40.554" viewBox="0 0 275.527 40.554"><defs><style>.a,.b{fill:#14213d;}.b{stroke:#14213d;stroke-linecap:round;stroke-linejoin:round;}</style></defs><path class="a" d="M41.312.948c-2.464.183-4.682,2.032-6.1,4.99V6l-10.29,26.06L10.872,4.4A7.206,7.206,0,0,0,1.755,1.206C.338,2.008-.709,3.671.594,6.141L14.887,33.679a5.718,5.718,0,0,0,5.48,3.141,5.805,5.805,0,0,0,4.621-2.711l2.218,4.5a2.821,2.821,0,0,0,2.464,1.416,2.69,2.69,0,0,0,2.464-1.477L45.318,8.359c.987-2.157.987-4.191,0-5.669A4.337,4.337,0,0,0,41.312.948ZM20.3,35.882a4.8,4.8,0,0,1-4.621-2.589L1.392,5.755C.521,4.092.835,2.736,2.19,2a4.694,4.694,0,0,1,2.218-.493,6.511,6.511,0,0,1,5.669,3.326L24.494,33.168A4.807,4.807,0,0,1,20.3,35.882ZM44.514,7.973,31.33,38.1a1.8,1.8,0,0,1-1.663.987A2.033,2.033,0,0,1,28,38.16L25.473,33.11l10.534-26.8c1.234-2.647,3.265-4.31,5.361-4.5A3.4,3.4,0,0,1,44.561,3.23C45.376,4.4,45.376,6.063,44.514,7.973Z" transform="translate(0 0.529)"/><path class="a" d="M65.426,4.152A18.362,18.362,0,0,0,55.386.515,25.794,25.794,0,0,0,47.871.7a7.2,7.2,0,0,0-.987.247,26.583,26.583,0,0,0-3.451.923,16.653,16.653,0,0,0-6.345,4.56l-.061.061a5.991,5.991,0,0,0-.871.247A17.323,17.323,0,0,0,29.81,11.3,14.3,14.3,0,0,0,27.1,16.233a22.639,22.639,0,0,0-.122,13.12c1.538,5.114,5.051,8.38,10.595,9.982a21.587,21.587,0,0,0,5.852.8,13.031,13.031,0,0,0,1.541-.061,24.436,24.436,0,0,0,10.6-1.785,14.07,14.07,0,0,0,4.682-3.326,10.833,10.833,0,0,0,.676-.871c.615-.183,1.231-.429,1.849-.676a13.463,13.463,0,0,0,4.682-3.326,17.154,17.154,0,0,0,3.942-10.412,27.1,27.1,0,0,0-.247-5.544A15.233,15.233,0,0,0,65.426,4.152ZM55.139,37.475A24.206,24.206,0,0,1,44.98,39.138h-.061a20.251,20.251,0,0,1-7.085-.74c-5.225-1.477-8.5-4.5-9.918-9.3a22.036,22.036,0,0,1,.061-12.629,12.6,12.6,0,0,1,2.589-4.557,15.352,15.352,0,0,1,5.48-4.064,13.386,13.386,0,0,0-1.724,3.512,23.221,23.221,0,0,0-.061,13.12c1.541,5.114,4.99,8.38,10.6,9.982a24.273,24.273,0,0,0,5.852.8c.493,0,.984-.064,1.477-.064a26.018,26.018,0,0,0,7.146-.676A12.519,12.519,0,0,1,55.139,37.475Zm5.225-4.189a24.51,24.51,0,0,1-8.127.923h-.061a18.839,18.839,0,0,1-7.086-.679c-5.225-1.477-8.5-4.557-9.918-9.288a21.525,21.525,0,0,1,.064-12.63,13.98,13.98,0,0,1,2.346-4.325,15.221,15.221,0,0,1,2.278-.554l.987-.247a18.932,18.932,0,0,1,3.773-.369c1.161,0,2.34.122,3.448.183,4.064.372,7.086,1.48,9.55,3.512A14.106,14.106,0,0,1,62.976,19.1a26.127,26.127,0,0,1,.247,5.422,16.927,16.927,0,0,1-2.848,8.769Zm10.1-13.677c-.308,4.128-1.48,7.329-3.7,9.869a13.161,13.161,0,0,1-4.374,3.08c-.183.122-.369.122-.615.247a17.819,17.819,0,0,0,2.342-8.255A27.14,27.14,0,0,0,63.876,19a14.821,14.821,0,0,0-5.73-9.918c-2.525-2.093-5.791-3.263-9.979-3.7a26.113,26.113,0,0,0-7.579.247l-.923.186L38.739,6a16.255,16.255,0,0,1,5.054-3.265,20.667,20.667,0,0,1,3.326-.923l.923-.186A19.41,19.41,0,0,1,51.8,1.261a31.461,31.461,0,0,1,3.512.186A17.054,17.054,0,0,1,64.86,4.9a14.4,14.4,0,0,1,5.361,9.364,24.556,24.556,0,0,1,.258,5.355Z" transform="translate(22.46 0.286)"/><path class="a" d="M88.426,20.7a11.221,11.221,0,0,0,4.621-4.252,10.627,10.627,0,0,0,.618-9.056C91.137,0,83.506,0,77.893.064L66.682,0a4.685,4.685,0,0,0-4.56,4.807v.676h-3.7a4.7,4.7,0,0,0-4.56,4.868V40.045l.554-.122c2.833-.679,6.9-2.032,8.624-5.73.308-.679.247-2.032.186-7.085-.061-2.218-.122-5.175-.186-9V6.412h10.1c3.573.183,13.062.554,13.8,9,.618,6.162-3.08,8.5-5.3,9.367a19.358,19.358,0,0,1-2.279.737l-.679.186.372.554c.244.369,6.406,9.239,7.454,10.473a7.346,7.346,0,0,0,6.775,3.08c2.4-.247,4.621-1.477,5.3-3.019a2.507,2.507,0,0,0-.247-2.525C98.272,34.254,94.71,29.758,88.426,20.7ZM62.18,33.822c-1.417,3.083-4.8,4.374-7.393,5.054V10.351a3.794,3.794,0,0,1,3.637-3.942h3.7v11.7l.186,9C62.366,31.482,62.427,33.331,62.18,33.822ZM73.147,5.483h-10.1V4.807A3.764,3.764,0,0,1,66.679.987H77.89C83.5.987,90.519.926,92.8,7.7a9.677,9.677,0,0,1-.432,8.011,10.209,10.209,0,0,1-4.743,4.371h-.186a11.644,11.644,0,0,0,.432-4.8C87.01,6.1,76.6,5.669,73.147,5.483Zm24.58,30.928c-.554,1.231-2.462,2.279-4.5,2.464a6.515,6.515,0,0,1-5.977-2.711c-.871-1.048-5.666-7.947-7.021-9.918l1.785-.615a8.827,8.827,0,0,0,5.225-5l.125.125c6.467,9.425,10.159,14.046,10.226,14.107a1.4,1.4,0,0,1,.133,1.544Z" transform="translate(46.413)"/><path class="a" d="M96.053.17a25.288,25.288,0,0,0-10.72,2.4L77.25,6.385H98.207V40.206l2.464-1.91c4.252-3.265,6.766-8.87,6.766-14.847V6.385h4.5a13.933,13.933,0,0,0,6.717-1.663L127.176.17Zm10.473,23.285a17.84,17.84,0,0,1-6.409,14.11l-.984.737V6.385h7.393Zm11.7-19.529a13.718,13.718,0,0,1-6.284,1.541H81.389L85.7,3.435A23.616,23.616,0,0,1,96.053,1.1h27.364Z" transform="translate(66.564 0.146)"/><path class="a" d="M133.932,6.512c4,0,6.1-1.91,6.1-3.82,0-1.234-.987-2.525-3.265-2.525H115.63a4.734,4.734,0,0,0-3.573,1.6,5.3,5.3,0,0,0-1.478,3.82h-3.018A4.687,4.687,0,0,0,104.369,7a5.215,5.215,0,0,0-1.234,2.9l-.061,12.568v7.509a5.58,5.58,0,0,0,1.3,3.387,4.744,4.744,0,0,0,3.265,1.417h2.956a5.3,5.3,0,0,0,1.478,3.82,4.721,4.721,0,0,0,3.573,1.6h21.132c2.279,0,3.265-1.292,3.265-2.525a3.3,3.3,0,0,0-1.6-2.65,8.121,8.121,0,0,0-4.5-1.161H111.514V20.811H131.72c3.511,0,5.36-1.974,5.36-3.82a2.216,2.216,0,0,0-.8-1.788,3.547,3.547,0,0,0-2.34-.74H111.514V6.512Zm-21.19-4.128a3.961,3.961,0,0,1,2.9-1.295h21.132c1.417,0,2.338.615,2.338,1.6,0,1.109-1.415,2.9-5.172,2.9H111.518a4.622,4.622,0,0,1,1.221-3.21ZM110.585,20.8V33.867h-2.9a3.946,3.946,0,0,1-2.649-1.109,4.607,4.607,0,0,1-1.046-2.833V10.454a5.025,5.025,0,0,1,1.046-2.833,3.88,3.88,0,0,1,2.588-1.109h2.958V19.951c.009.287,0,.54,0,.853Zm23.349,13.982c3.757,0,5.174,1.788,5.174,2.9a1.378,1.378,0,0,1-.147.62,1.4,1.4,0,0,1-.408.489,2.934,2.934,0,0,1-1.785.493H115.636a3.743,3.743,0,0,1-2.9-1.294A4.621,4.621,0,0,1,111.5,34.8Zm0-19.4a2.738,2.738,0,0,1,1.724.493,1.337,1.337,0,0,1,.38.5,1.363,1.363,0,0,1,.115.614c0,1.231-1.357,2.9-4.438,2.9H111.508v-4.5Z" transform="translate(88.815 0.144)"/><path class="a" d="M150.1,16.649,165.936.815,165.319.2,149.486,16.031,134.209.815a.41.41,0,0,0-.14-.1A.4.4,0,0,0,133.9.676a.416.416,0,0,0-.169.036.41.41,0,0,0-.14.1,9.939,9.939,0,0,0-2.9,7.022,10.048,10.048,0,0,0,2.9,7.024l8.564,8.5-14.97,14.969.616.618,14.972-14.972L158.85,40.12a.392.392,0,0,0,.141.094.4.4,0,0,0,.166.028c.125,0,.248,0,.309-.122a9.928,9.928,0,0,0,0-14.046Zm-15.893-2.4a8.987,8.987,0,0,1-2.649-6.409,9.194,9.194,0,0,1,2.338-6.1l14.973,14.911-6.1,6.1Zm24.963,24.963L143.387,23.366l6.1-6.037,9.362,9.364a9.024,9.024,0,0,1,.311,12.5Z" transform="translate(109.592 0.172)"/><path class="b" d="M32.724,7.429,19.54,37.559a1.8,1.8,0,0,1-1.663.987,2.032,2.032,0,0,1-1.669-.929l-2.525-5.051,10.534-26.8c1.234-2.647,3.265-4.31,5.361-4.5a3.4,3.4,0,0,1,3.193,1.417C33.586,3.856,33.586,5.519,32.724,7.429Z" transform="translate(11.79 1.073)"/><path class="b" d="M64.763,19.182c-.311,4.128-1.48,7.329-3.7,9.869a13.222,13.222,0,0,1-4.374,3.08c-.186.122-.369.122-.615.247a17.783,17.783,0,0,0,2.34-8.255,26.952,26.952,0,0,0-.244-5.547,14.831,14.831,0,0,0-5.73-9.918c-2.525-2.093-5.791-3.263-9.982-3.7a26.094,26.094,0,0,0-7.576.247l-.926.186-.923.183a16.255,16.255,0,0,1,5.054-3.266,20.592,20.592,0,0,1,3.326-.923l.923-.186A19.391,19.391,0,0,1,46.1.834,31.409,31.409,0,0,1,49.6,1.02a17.065,17.065,0,0,1,9.55,3.448,14.409,14.409,0,0,1,5.361,9.364A25.263,25.263,0,0,1,64.763,19.182Z" transform="translate(28.464 0.719)"/><path class="b" d="M68.92,5.225h-10.1V4.546A3.766,3.766,0,0,1,62.453.726h11.21c5.608,0,12.629-.061,14.911,6.717a9.67,9.67,0,0,1-.433,8.008A10.22,10.22,0,0,1,83.4,19.826h-.186a11.664,11.664,0,0,0,.432-4.807C82.783,5.841,72.371,5.4,68.92,5.225Z" transform="translate(50.68 0.626)"/><path class="b" d="M85.522,26.86c-.554,1.231-2.462,2.279-4.5,2.464a6.515,6.515,0,0,1-5.977-2.711c-.871-1.048-5.666-7.947-7.022-9.918l1.785-.615a8.826,8.826,0,0,0,5.225-5l.125.125c6.467,9.425,10.159,14.046,10.226,14.107a1.405,1.405,0,0,1,.134,1.544Z" transform="translate(58.618 9.551)"/><path class="b" d="M96.4,20.8a17.83,17.83,0,0,1-6.409,14.107l-.984.74V3.74H96.4Z" transform="translate(76.693 3.223)"/><path class="b" d="M130.028,8.342a2.738,2.738,0,0,1,1.724.493,1.337,1.337,0,0,1,.493,1.109c0,1.231-1.355,2.9-4.438,2.9H107.6v-4.5Z" transform="translate(92.718 7.185)"/><path class="b" d="M151.554,31.308l-15.77-15.831,6.1-6.037,9.364,9.364a9.029,9.029,0,0,1,.311,12.5Z" transform="translate(117.001 8.134)"/><path class="b" d="M130.033,18.763c3.755,0,5.172,1.788,5.172,2.9a1.392,1.392,0,0,1-.555,1.109,2.93,2.93,0,0,1-1.785.493h-21.13a3.75,3.75,0,0,1-2.9-1.295,4.621,4.621,0,0,1-1.232-3.193Z" transform="translate(92.714 16.168)"/></svg>