<svg xmlns="http://www.w3.org/2000/svg" viewBox="0 0 244.01 206.13">
  <g id="Layer_2" data-name="Layer 2">
    <g id="Layer_1-2" data-name="Layer 1">
      <path d="M237.09,50.24,130.23,1.77a20.28,20.28,0,0,0-16.57,0L6.8,50.24A11.46,11.46,0,0,0,0,61.08,11.23,11.23,0,0,0,7,71.31L38.1,85.17v76.74a21.19,21.19,0,0,0,6.79,15.27,116.29,116.29,0,0,0,77.25,28.93,111.63,111.63,0,0,0,77.62-29.39,22.21,22.21,0,0,0,6.34-14.5V85.11l30.53-13.65a11.45,11.45,0,0,0,.46-21.22Zm-69.16,51.94v42.87a7.63,7.63,0,1,1-15.26,0V102.3l-6.62-6.64L116.79,66.35a7.63,7.63,0,0,1,0-10.79l0-.05a7.64,7.64,0,0,1,10.77,0L161,89l4.7,4.7a7.58,7.58,0,0,1,2.21,5.57Z"/>
    </g>
  </g>
</svg>
