<svg xmlns="http://www.w3.org/2000/svg" viewBox="0 0 176.66 195.89">
  <defs>
    <style>
      .cls-1 {
        fill-rule: evenodd;
      }
    </style>
  </defs>
  <g id="Layer_2" data-name="Layer 2">
    <g id="Layer_1-2" data-name="Layer 1">
      <path class="cls-1" d="M30.84,95.7a7.49,7.49,0,0,1,6.53-4.54h0a42.88,42.88,0,0,1,5.07,0,46.35,46.35,0,0,1,14.81,3.39,45.17,45.17,0,0,1,6.29,3.17c1,.61,2,1.27,3,2l.68.49c4.17,3.11,8.32,6.24,12.49,9.36h0l.18.13.37.27.85.58a31.82,31.82,0,0,0,3.27,1.84A38.44,38.44,0,0,0,99,115.57a8.39,8.39,0,0,1,7.54,5.09c5.43,12.7,18.38,43.06,18.38,43.06a23.86,23.86,0,0,1,.86,2.37,23,23,0,0,1-.36,14.42l-.06.19v0h0a1.07,1.07,0,0,1-.07.19h0l0,.1,0,.07v0h0a1.34,1.34,0,0,1-.07.18h0v0l0,.07,0,.09v0h0l-.08.18v0l0,0,0,.06,0,.11h0c0,.06,0,.12-.07.17v0a1.42,1.42,0,0,0-.08.18h0v0l0,.09,0,.06v.05s0,.11-.08.16v0l0,0,0,.07,0,.06,0,0v0l-.07.15,0,0,0,0,0,0,0,.08,0,0,0,0,0,.1v0l0,0,0,0v0l0,.08,0,.06,0,.06,0,.05,0,0,0,0,0,0h0l0,0-.06.11,0,.08,0,0v0a22.93,22.93,0,0,1-1.66,2.49,23,23,0,0,1-9.93,7.45,22.69,22.69,0,0,1-5.49,1.39,22,22,0,0,1-2.69.18q-40.53.16-81,0a22,22,0,0,1-2.69-.18,22.58,22.58,0,0,1-5.49-1.39A23.06,23.06,0,0,1,0,171.85a22.71,22.71,0,0,1,.87-5.42,21.25,21.25,0,0,1,.89-2.54C10.28,143.72,25.74,107.59,30.84,95.7ZM121.23,113a3.74,3.74,0,0,1,4.26-3.7c3.25.45,6.43,1.17,8,2.07s3,1.42,4.39,2.31c.61.39,1.2.8,1.78,1.22,2.86,2.13,5.7,4.29,8.56,6.42a22.79,22.79,0,0,0,4.13,2.35,23.47,23.47,0,0,0,6.25,1.76,3.7,3.7,0,0,1,3.25,3.67c0,11.44,0,47.08,0,47.08v.13a17.28,17.28,0,0,1-.12,2,18.5,18.5,0,0,1-1,4.16,18.72,18.72,0,0,1-4.7,7.21,18.61,18.61,0,0,1-10.62,5,17.14,17.14,0,0,1-2,.14c-1.14,0-2.28,0-3.42,0a19.24,19.24,0,0,1-2.15-.14,18.49,18.49,0,0,1-3.94-.92,18.68,18.68,0,0,1-6.6-4c-.36-.34-.7-.69-1-1.06.42-.59.82-1.21,1.19-1.84a27.45,27.45,0,0,0,3.89-14.39,28,28,0,0,0-.94-6.94,29.15,29.15,0,0,0-.94-2.87l-.25-.6q-4-9.45-8-18.88Q121.23,128.13,121.23,113Zm.24-99.66V6.47H109.94l-.28,0a3.63,3.63,0,0,1-.56-.09,3.28,3.28,0,0,1-1.63-1.05A3.19,3.19,0,0,1,107,4.6a3.25,3.25,0,0,1-.3-1.37,3.18,3.18,0,0,1,.3-1.36,3,3,0,0,1,.46-.72,3.46,3.46,0,0,1,.85-.72,3.14,3.14,0,0,1,1.06-.38,3.53,3.53,0,0,1,.56,0h63.77a5.48,5.48,0,0,1,.56.1,3.33,3.33,0,0,1,1.64,1,3.28,3.28,0,0,1,.7,2.64,3.3,3.3,0,0,1-.25.81,3.54,3.54,0,0,1-.45.71,3.47,3.47,0,0,1-.86.72,3.39,3.39,0,0,1-1.06.39,5.29,5.29,0,0,1-.56,0H161.89V119.16h-.34a15.9,15.9,0,0,1-6.41-1.33,15.25,15.25,0,0,1-3.08-1.72c-2.86-2.11-5.69-4.27-8.54-6.4-.71-.51-1.42-1-2.16-1.48a38.1,38.1,0,0,0-5.33-2.8,36.9,36.9,0,0,0-9.61-2.61,37.63,37.63,0,0,0-4.63-.31h-.55q0-8.07,0-16.15c2.08,0,4.17,0,6.26,0l.43,0a3.19,3.19,0,0,0,1-.36,3.31,3.31,0,0,0,.77-.58,3.48,3.48,0,0,0,.73-1.19,3.27,3.27,0,0,0,.16-1.39,3.46,3.46,0,0,0-.2-.83,3.1,3.1,0,0,0-.62-1,3.14,3.14,0,0,0-1-.76,3.33,3.33,0,0,0-.93-.28,3,3,0,0,0-.43,0c-2,0-4.09,0-6.14,0l0-5v-5.1c2.08,0,4.15,0,6.22,0a3.13,3.13,0,0,0,.43,0,3.33,3.33,0,0,0,1-.35,3.29,3.29,0,0,0,1.59-2.09,3.53,3.53,0,0,0,.08-.86,3.45,3.45,0,0,0-.17-1,3.3,3.3,0,0,0-1.6-1.82,3,3,0,0,0-.92-.3,3.15,3.15,0,0,0-.43,0c-2.07,0-4.13,0-6.2,0l0-5.49V53.12c2.06,0,4.12,0,6.17,0a3.53,3.53,0,0,0,1.45-.4,3.1,3.1,0,0,0,.77-.59,3.16,3.16,0,0,0,.51-.69,3.3,3.3,0,0,0,.39-1.34,3.2,3.2,0,0,0-.21-1.37,3.1,3.1,0,0,0-.62-1,3.32,3.32,0,0,0-1-.77,3.69,3.69,0,0,0-.93-.27c-.14,0-.28,0-.43,0l-6,0,0-6V36.5c2,0,4.08,0,6.12,0l.43,0a3.43,3.43,0,0,0,1-.35,3.66,3.66,0,0,0,.77-.59,3.48,3.48,0,0,0,.73-1.19,3.24,3.24,0,0,0,.16-1.38,3.43,3.43,0,0,0-.2-.84,3.2,3.2,0,0,0-.62-1,3.14,3.14,0,0,0-1-.76,3.3,3.3,0,0,0-1.36-.3l-6,0V19.87c2,0,4.05,0,6.08,0a3.15,3.15,0,0,0,.43-.05,3,3,0,0,0,.92-.3,3.3,3.3,0,0,0,1.6-1.82,3.46,3.46,0,0,0,.17-1,3.5,3.5,0,0,0-.08-.85A3.27,3.27,0,0,0,129,13.79a3.33,3.33,0,0,0-1-.35,3.15,3.15,0,0,0-.43,0C125.52,13.36,123.49,13.35,121.47,13.36ZM40.3,33.72V25.4H28.57l-.28,0a3.27,3.27,0,0,1-1.09-.41,3.45,3.45,0,0,1-.67-.54,3.22,3.22,0,0,1-.87-2.67,3.41,3.41,0,0,1,.23-.83,3.15,3.15,0,0,1,.64-1A3.2,3.2,0,0,1,28.29,19a3.68,3.68,0,0,1,.57-.06H97.65l.29,0a2.72,2.72,0,0,1,.57.1,3.26,3.26,0,0,1,1.67,1.1,3.33,3.33,0,0,1,.62,1.3,3.18,3.18,0,0,1,0,1.44,3.44,3.44,0,0,1-.3.81,3.48,3.48,0,0,1-.51.7,3.32,3.32,0,0,1-.94.68,3.28,3.28,0,0,1-1.11.31H86.48V73.08a2.15,2.15,0,0,0,.09.61,1.42,1.42,0,0,0,.1.29l15,35.07h-.05a22.67,22.67,0,0,1-3.08.22,25.06,25.06,0,0,1-9.91-2.09c-.83-.35-1.65-.75-2.44-1.18a25.68,25.68,0,0,1-2.44-1.54c-4.23-3.14-8.42-6.33-12.65-9.48-1-.74-2-1.45-3.1-2.13a53.08,53.08,0,0,0-20.87-7.7c-1.71-.24-3.43-.4-5.15-.47-.71,0-1.42,0-2.13,0h-.61c-1.23,0-2.46.06-3.69.16L40.12,74a3,3,0,0,0,.16-.59l0-.31V60.57c3.15,0,6.3,0,9.45,0a3.78,3.78,0,0,0,.47-.06,2.91,2.91,0,0,0,.9-.31,3.15,3.15,0,0,0,1.54-1.75,3.25,3.25,0,0,0-.19-2.66,3.33,3.33,0,0,0-.58-.76,3.11,3.11,0,0,0-.77-.56,3.05,3.05,0,0,0-1-.33,3.57,3.57,0,0,0-.47,0c-3.11,0-6.22,0-9.33,0V40.22c3.15,0,6.3.05,9.45,0a3.75,3.75,0,0,0,.47-.05,3.32,3.32,0,0,0,1-.37,3.28,3.28,0,0,0,1.54-2,3.78,3.78,0,0,0,.09-1,3.29,3.29,0,0,0-.2-.93,3.15,3.15,0,0,0-1.54-1.75,3.12,3.12,0,0,0-.9-.32,3.75,3.75,0,0,0-.47,0Q45,33.66,40.3,33.72Z"/>
    </g>
  </g>
</svg>
